<?xml version="1.0" encoding="UTF-8"?>
<svg xmlns="http://www.w3.org/2000/svg" version="1.1" viewBox="0 0 139 24">
  <!-- Generator: Adobe Illustrator 29.3.1, SVG Export Plug-In . SVG Version: 2.1.0 Build 151)  -->
  <g id="Google_Cloud_logo">
    <g>
      <path d="M89.753,18.624c-2.438,0-4.478-.82-6.118-2.461-1.626-1.641-2.438-3.688-2.438-6.142s.812-4.492,2.438-6.117c1.625-1.656,3.664-2.484,6.118-2.484,2.483,0,4.5.896,6.049,2.691l-1.519,1.472c-1.181-1.426-2.69-2.139-4.53-2.139-1.825,0-3.351.613-4.577,1.84-1.212,1.211-1.817,2.791-1.817,4.737s.605,3.527,1.817,4.738c1.227,1.227,2.752,1.84,4.577,1.84,1.916,0,3.58-.805,4.99-2.415l1.541,1.495c-.781.936-1.74,1.66-2.875,2.174s-2.354.771-3.656.771ZM100.118,1.788v16.468h-2.116V1.788h2.116ZM101.942,12.621c0-1.732.544-3.166,1.633-4.301,1.104-1.135,2.491-1.702,4.163-1.702s3.051.567,4.14,1.702c1.104,1.135,1.656,2.568,1.656,4.301,0,1.748-.552,3.182-1.656,4.301-1.089,1.135-2.469,1.702-4.14,1.702s-3.06-.567-4.163-1.702c-1.089-1.135-1.633-2.568-1.633-4.301ZM104.058,12.621c0,1.211.353,2.192,1.059,2.943.705.752,1.579,1.127,2.622,1.127s1.916-.375,2.622-1.127c.705-.751,1.058-1.732,1.058-2.943,0-1.196-.353-2.17-1.058-2.921-.721-.767-1.595-1.15-2.622-1.15s-1.901.384-2.622,1.15c-.706.751-1.059,1.725-1.059,2.921ZM125.229,18.255h-2.024v-1.564h-.092c-.321.553-.816,1.013-1.483,1.381-.667.367-1.36.552-2.081.552-1.38,0-2.442-.395-3.186-1.185-.744-.79-1.116-1.913-1.116-3.369v-7.084h2.116v6.945c.046,1.84.974,2.76,2.783,2.76.843,0,1.549-.341,2.116-1.023.567-.682.851-1.498.851-2.449v-6.232h2.116v11.27ZM132.394,18.624c-1.472,0-2.736-.583-3.795-1.748-1.043-1.181-1.563-2.599-1.563-4.255s.521-3.074,1.563-4.255c1.059-1.165,2.323-1.748,3.795-1.748.828,0,1.583.176,2.266.528.683.354,1.208.821,1.576,1.403h.092l-.092-1.563V1.788h2.115v16.468h-2.023v-1.564h-.092c-.368.583-.894,1.051-1.576,1.403s-1.438.529-2.266.529ZM132.739,16.691c1.042,0,1.894-.375,2.553-1.127.689-.751,1.035-1.732,1.035-2.943,0-1.181-.346-2.154-1.035-2.921-.675-.767-1.526-1.15-2.553-1.15-1.013,0-1.863.384-2.554,1.15-.689.767-1.035,1.74-1.035,2.921,0,1.195.346,2.17,1.035,2.921.69.767,1.541,1.149,2.554,1.149Z" fill="#fff"/>
      <g id="_x37_5x24px">
        <path d="M9.487,18.618C4.334,18.618,0,14.441,0,9.309S4.334,0,9.487,0c2.852,0,4.881,1.113,6.409,2.566l-1.802,1.794c-1.095-1.022-2.577-1.816-4.607-1.816-3.763,0-6.705,3.02-6.705,6.766s2.943,6.766,6.705,6.766c2.441,0,3.832-.976,4.721-1.862.729-.727,1.209-1.771,1.391-3.201h-6.112v-2.543h8.599c.092.454.137.999.137,1.589,0,1.907-.525,4.268-2.212,5.949-1.642,1.703-3.741,2.611-6.524,2.611Z" fill="#4285f4"/>
        <path d="M31.522,12.624c0,3.451-2.665,5.994-5.934,5.994s-5.934-2.543-5.934-5.994c0-3.474,2.665-5.994,5.934-5.994s5.934,2.52,5.934,5.994ZM28.924,12.624c0-2.157-1.545-3.633-3.337-3.633s-3.337,1.476-3.337,3.633c0,2.134,1.545,3.633,3.337,3.633s3.337-1.498,3.337-3.633Z" fill="#ea4335"/>
        <path d="M44.825,12.624c0,3.451-2.665,5.994-5.935,5.994s-5.934-2.543-5.934-5.994c0-3.474,2.665-5.994,5.934-5.994s5.935,2.52,5.935,5.994ZM42.228,12.624c0-2.157-1.545-3.633-3.337-3.633s-3.336,1.476-3.336,3.633c0,2.134,1.545,3.633,3.336,3.633s3.337-1.498,3.337-3.633Z" fill="#fbbc04"/>
        <path d="M57.796,6.993v10.763c0,4.427-2.622,6.244-5.725,6.244-2.919,0-4.675-1.953-5.337-3.542l2.303-.953c.411.976,1.414,2.134,3.034,2.134,1.984,0,3.216-1.226,3.216-3.519v-.863h-.092c-.593.727-1.733,1.362-3.17,1.362-3.01,0-5.77-2.611-5.77-5.971,0-3.383,2.76-6.017,5.77-6.017,1.436,0,2.577.636,3.17,1.34h.092v-.976h2.508ZM55.47,12.647c0-2.111-1.414-3.655-3.215-3.655-1.824,0-3.353,1.544-3.353,3.655,0,2.089,1.528,3.61,3.353,3.61,1.801,0,3.215-1.521,3.215-3.61Z" fill="#4285f4"/>
        <path d="M62.432.636v17.619h-2.646V.636h2.646Z" fill="#34a853"/>
        <path d="M72.833,14.6l2.053,1.362c-.661.976-2.258,2.656-5.017,2.656-3.42,0-5.891-2.634-5.891-5.994,0-3.565,2.493-5.994,5.595-5.994,3.124,0,4.653,2.475,5.154,3.814l.274.681-8.051,3.315c.616,1.203,1.574,1.816,2.919,1.816s2.281-.658,2.965-1.657ZM66.516,12.443l5.383-2.225c-.297-.749-1.186-1.272-2.235-1.272-1.346,0-3.215,1.181-3.148,3.497Z" fill="#ea4335"/>
      </g>
    </g>
  </g>
  <g id="specs" display="none">
    <g id="x__x3D__G_width">
      <text transform="translate(7.704 34.3) scale(.972 1)" fill="#fff" font-family="ProductSans-Regular, &apos;Product Sans&apos;" font-size="6"><tspan x="0" y="0">x</tspan></text>
    </g>
    <text transform="translate(72.738 34.3) scale(.972 1)" fill="#fff" font-family="ProductSans-Regular, &apos;Product Sans&apos;" font-size="6"><tspan x="0" y="0">0.4x</tspan></text>
    <g>
      <path d="M104.917,32.561v1.74h-.537v-4.296h1.424c.361,0,.668.124.92.372.258.248.385.55.385.906,0,.363-.127.668-.385.911-.248.244-.555.366-.92.366h-.887ZM104.917,30.533v1.5h.898c.213,0,.391-.074.529-.223.145-.147.217-.324.217-.527,0-.2-.072-.374-.217-.522-.139-.152-.316-.228-.529-.228h-.898Z" fill="#fff"/>
      <path d="M108.112,34.301h-.537v-2.94h.514v.48h.023c.053-.156.166-.289.334-.399.17-.109.336-.165.498-.165.156,0,.289.024.396.072l-.162.534c-.066-.028-.172-.042-.314-.042-.203,0-.379.084-.529.252-.148.168-.223.364-.223.588v1.62Z" fill="#fff"/>
      <path d="M109.352,32.831c0-.452.139-.826.414-1.122.281-.296.633-.444,1.057-.444s.773.148,1.049.444c.279.296.42.67.42,1.122,0,.456-.141.83-.42,1.122-.275.296-.627.443-1.049.443s-.775-.147-1.057-.443c-.275-.296-.414-.67-.414-1.122ZM109.89,32.831c0,.315.09.572.268.768.18.196.4.294.666.294.264,0,.484-.098.664-.294.178-.195.268-.452.268-.768,0-.312-.09-.566-.268-.763-.184-.199-.404-.3-.664-.3-.262,0-.482.101-.666.3-.178.196-.268.45-.268.763Z" fill="#fff"/>
      <path d="M113.977,34.396c-.373,0-.693-.151-.963-.456-.264-.308-.396-.678-.396-1.109s.133-.802.396-1.11c.27-.304.59-.456.963-.456.209,0,.4.046.574.138.172.093.307.215.398.366h.023l-.023-.408v-1.355h.537v4.296h-.514v-.408h-.023c-.092.152-.227.274-.398.366-.174.092-.365.138-.574.138ZM114.065,33.893c.264,0,.479-.098.646-.294.176-.195.262-.452.262-.768,0-.309-.086-.562-.262-.763-.172-.199-.387-.3-.646-.3-.258,0-.473.101-.648.3-.174.2-.262.454-.262.763,0,.312.088.565.262.762.176.2.391.3.648.3Z" fill="#fff"/>
      <path d="M118.647,34.301h-.514v-.408h-.023c-.082.145-.207.265-.377.36-.168.096-.344.144-.527.144-.35,0-.619-.103-.807-.309-.189-.206-.283-.499-.283-.879v-1.849h.537v1.812c.012.479.246.72.705.72.213,0,.393-.089.535-.267.145-.178.217-.392.217-.64v-1.626h.537v2.94Z" fill="#fff"/>
      <path d="M120.577,34.396c-.424,0-.775-.147-1.057-.443-.275-.305-.414-.679-.414-1.122,0-.452.139-.826.414-1.122.281-.296.633-.444,1.057-.444.291,0,.545.075.764.226.217.149.381.356.488.62l-.488.21c-.152-.367-.418-.552-.799-.552-.246,0-.457.103-.637.307-.174.203-.262.456-.262.756s.088.552.262.756c.18.204.391.306.637.306.393,0,.668-.184.828-.552l.477.21c-.104.264-.268.471-.492.621-.223.15-.482.225-.777.225Z" fill="#fff"/>
      <path d="M123.417,34.349c-.234,0-.428-.074-.58-.222-.154-.148-.232-.354-.236-.618v-1.644h-.502v-.505h.502v-.899h.535v.899h.699v.505h-.699v1.464c0,.195.037.329.111.398.074.07.158.105.25.105.043,0,.086-.005.127-.016.039-.01.078-.022.113-.039l.168.492c-.139.052-.303.078-.488.078Z" fill="#fff"/>
      <path d="M128.128,33.154c0,.377-.135.679-.402.906-.273.225-.604.336-.992.336-.346,0-.65-.104-.916-.312-.264-.208-.445-.492-.547-.853l.514-.216c.033.128.082.244.145.349.062.104.135.192.219.267s.176.132.277.174.207.063.32.063c.246,0,.445-.065.602-.195.154-.13.232-.303.232-.52,0-.18-.064-.333-.193-.462-.119-.124-.346-.243-.676-.359-.334-.124-.541-.208-.623-.252-.443-.232-.664-.574-.664-1.026,0-.315.121-.586.367-.81.248-.225.553-.336.914-.336.318,0,.596.084.828.252.234.164.389.37.467.617l-.502.217c-.047-.16-.139-.293-.277-.399-.137-.105-.305-.159-.504-.159-.209,0-.387.061-.529.181-.145.111-.217.258-.217.438,0,.148.057.276.17.384.123.108.395.236.811.385.422.147.725.328.906.543.18.214.271.477.271.788Z" fill="#fff"/>
      <path d="M129.765,31.265c.396,0,.709.109.939.327.229.218.344.517.344.897v1.812h-.514v-.408h-.023c-.221.336-.516.504-.885.504-.316,0-.58-.096-.791-.288-.211-.191-.318-.432-.318-.72,0-.304.113-.546.336-.726.223-.181.521-.271.895-.271.318,0,.582.061.787.181v-.126c0-.192-.074-.355-.221-.489-.148-.134-.32-.201-.52-.201-.299,0-.537.13-.711.39l-.473-.306c.26-.384.645-.576,1.154-.576ZM129.071,33.4c0,.145.059.265.178.36s.258.144.416.144c.227,0,.428-.086.604-.258.178-.172.266-.374.266-.605-.166-.136-.4-.204-.699-.204-.219,0-.4.054-.545.162-.146.107-.219.242-.219.401Z" fill="#fff"/>
      <path d="M131.653,31.36h.514v.408h.023c.082-.144.207-.264.377-.359.168-.097.344-.145.527-.145.35,0,.619.104.807.31.189.206.283.499.283.879v1.848h-.537v-1.812c-.012-.48-.246-.721-.705-.721-.213,0-.393.089-.537.268-.143.178-.215.391-.215.639v1.626h-.537v-2.94Z" fill="#fff"/>
      <path d="M136.972,33.484c0,.257-.109.473-.326.648-.219.176-.492.264-.822.264-.289,0-.541-.077-.758-.23-.219-.154-.373-.357-.467-.609l.479-.21c.068.176.172.313.305.411.135.098.281.146.441.146.17,0,.312-.037.428-.113s.172-.166.172-.271c0-.188-.139-.326-.42-.414l-.488-.126c-.557-.144-.834-.42-.834-.828,0-.268.105-.482.316-.645.213-.162.484-.243.814-.243.252,0,.48.062.686.187.203.124.346.29.428.498l-.479.203c-.055-.123-.143-.221-.266-.291-.121-.069-.258-.104-.41-.104-.141,0-.266.036-.377.108-.109.071-.166.159-.166.264,0,.168.154.288.461.36l.432.113c.568.145.852.438.852.882Z" fill="#fff"/>
      <path d="M112.884,38.327c0,.6-.174,1.078-.52,1.434-.389.424-.898.636-1.533.636-.605,0-1.119-.216-1.539-.647-.42-.433-.629-.964-.629-1.597s.209-1.163.629-1.596c.42-.432.934-.647,1.539-.647.307,0,.598.056.869.168.271.111.496.27.67.474l-.385.396c-.127-.16-.295-.285-.498-.375-.203-.091-.422-.136-.656-.136-.455,0-.84.162-1.154.486-.311.328-.467.738-.467,1.229s.156.902.467,1.23c.314.324.699.486,1.154.486.416,0,.762-.12,1.039-.36.275-.24.434-.57.477-.99h-1.516v-.516h2.023c.02.112.029.22.029.324Z" fill="#fff"/>
      <path d="M113.864,40.301h-.537v-2.94h.514v.48h.023c.053-.156.166-.289.334-.399.17-.109.336-.165.498-.165.156,0,.289.024.396.072l-.162.534c-.066-.028-.172-.042-.314-.042-.203,0-.379.084-.529.252-.148.168-.223.364-.223.588v1.62Z" fill="#fff"/>
      <path d="M116.552,40.396c-.42,0-.766-.147-1.039-.443-.271-.296-.408-.67-.408-1.122,0-.448.133-.821.396-1.119.266-.298.604-.447,1.016-.447.424,0,.76.142,1.012.423.25.282.375.678.375,1.186l-.006.06h-2.244c.008.288.102.521.279.696.18.176.393.264.643.264.342,0,.609-.176.805-.527l.477.239c-.127.248-.305.442-.533.582-.227.141-.484.21-.771.21ZM115.694,38.477h1.639c-.016-.204-.098-.373-.242-.507-.146-.134-.342-.201-.586-.201-.203,0-.377.064-.521.192-.146.128-.242.3-.289.516Z" fill="#fff"/>
      <path d="M120.888,37.36l-1.789,4.236h-.555l.666-1.481-1.178-2.755h.582l.852,2.112h.012l.828-2.112h.582Z" fill="#fff"/>
      <path d="M125.011,36.761l-1.936,3.636-.479-.252,1.85-3.42h-2.018l.012-.527h2.57v.563Z" fill="#fff"/>
      <path d="M125.442,38.249c0-.624.148-1.138.447-1.542.301-.404.686-.606,1.156-.606s.854.204,1.154.612c.299.404.447.916.447,1.536,0,.616-.148,1.13-.447,1.542-.301.404-.686.605-1.154.605s-.855-.201-1.156-.605c-.299-.412-.447-.926-.447-1.542ZM128.101,38.249c0-.473-.098-.86-.291-1.164-.191-.304-.445-.456-.764-.456-.32,0-.574.152-.766.456-.193.304-.291.691-.291,1.164s.098.861.291,1.17c.191.3.445.45.766.45.318,0,.572-.152.764-.456.193-.309.291-.696.291-1.164Z" fill="#fff"/>
      <path d="M129.161,38.249c0-.624.15-1.138.449-1.542s.684-.606,1.154-.606.855.204,1.154.612c.299.404.449.916.449,1.536,0,.616-.15,1.13-.449,1.542-.299.404-.684.605-1.154.605s-.855-.201-1.154-.605c-.299-.412-.449-.926-.449-1.542ZM131.819,38.249c0-.473-.096-.86-.291-1.164-.189-.304-.445-.456-.764-.456s-.574.152-.764.456c-.195.304-.291.691-.291,1.164s.096.861.291,1.17c.189.3.445.45.764.45s.574-.152.764-.456c.195-.309.291-.696.291-1.164Z" fill="#fff"/>
    </g>
  </g>
</svg>