<svg xmlns="http://www.w3.org/2000/svg" viewBox="0 0 1200 600" style="background: linear-gradient(135deg, #ED2939 0%, #1E40AF 100%);">
  <defs>
    <!-- Gradients -->
    <linearGradient id="skyGradient" x1="0%" y1="0%" x2="0%" y2="100%">
      <stop offset="0%" style="stop-color:#87CEEB;stop-opacity:0.3" />
      <stop offset="100%" style="stop-color:#4682B4;stop-opacity:0.1" />
    </linearGradient>
    
    <linearGradient id="buildingGradient" x1="0%" y1="0%" x2="0%" y2="100%">
      <stop offset="0%" style="stop-color:#FFFFFF;stop-opacity:0.9" />
      <stop offset="100%" style="stop-color:#F0F0F0;stop-opacity:0.7" />
    </linearGradient>
    
    <linearGradient id="waterGradient" x1="0%" y1="0%" x2="0%" y2="100%">
      <stop offset="0%" style="stop-color:#4682B4;stop-opacity:0.3" />
      <stop offset="100%" style="stop-color:#191970;stop-opacity:0.5" />
    </linearGradient>
    
    <linearGradient id="merlionGradient" x1="0%" y1="0%" x2="0%" y2="100%">
      <stop offset="0%" style="stop-color:#FFFFFF;stop-opacity:0.9" />
      <stop offset="100%" style="stop-color:#E0E0E0;stop-opacity:0.8" />
    </linearGradient>
    
    <!-- Filters for glow effects -->
    <filter id="glow">
      <feGaussianBlur stdDeviation="3" result="coloredBlur"/>
      <feMerge> 
        <feMergeNode in="coloredBlur"/>
        <feMergeNode in="SourceGraphic"/>
      </feMerge>
    </filter>
  </defs>
  
  <!-- Sky background -->
  <rect width="1200" height="400" fill="url(#skyGradient)"/>
  
  <!-- Water/Marina Bay -->
  <path d="M0,400 Q300,380 600,390 T1200,400 L1200,600 L0,600 Z" fill="url(#waterGradient)"/>
  
  <!-- Marina Bay Sands (Simplified) -->
  <g transform="translate(800, 200)">
    <!-- Three towers -->
    <rect x="0" y="100" width="30" height="200" fill="url(#buildingGradient)" opacity="0.8"/>
    <rect x="40" y="80" width="30" height="220" fill="url(#buildingGradient)" opacity="0.8"/>
    <rect x="80" y="90" width="30" height="210" fill="url(#buildingGradient)" opacity="0.8"/>
    
    <!-- SkyPark (top platform) -->
    <ellipse cx="55" cy="85" rx="65" ry="15" fill="url(#buildingGradient)" opacity="0.9"/>
    
    <!-- Windows pattern -->
    <g opacity="0.6">
      <rect x="5" y="120" width="4" height="4" fill="#F59E0B"/>
      <rect x="15" y="140" width="4" height="4" fill="#F59E0B"/>
      <rect x="25" y="160" width="4" height="4" fill="#F59E0B"/>
      <rect x="45" y="100" width="4" height="4" fill="#F59E0B"/>
      <rect x="55" y="120" width="4" height="4" fill="#F59E0B"/>
      <rect x="65" y="140" width="4" height="4" fill="#F59E0B"/>
      <rect x="85" y="110" width="4" height="4" fill="#F59E0B"/>
      <rect x="95" y="130" width="4" height="4" fill="#F59E0B"/>
      <rect x="105" y="150" width="4" height="4" fill="#F59E0B"/>
    </g>
  </g>
  
  <!-- Merlion (Simplified) -->
  <g transform="translate(200, 250)">
    <!-- Merlion body -->
    <ellipse cx="25" cy="80" rx="20" ry="40" fill="url(#merlionGradient)" opacity="0.8"/>
    
    <!-- Merlion head -->
    <circle cx="25" cy="40" r="18" fill="url(#merlionGradient)" opacity="0.8"/>
    
    <!-- Merlion mane -->
    <path d="M10,35 Q5,25 15,20 Q25,15 35,20 Q45,25 40,35" fill="url(#merlionGradient)" opacity="0.7"/>
    
    <!-- Water spray -->
    <path d="M43,40 Q60,35 80,45 Q90,50 85,55 Q75,50 60,48 Q50,45 43,40" fill="#87CEEB" opacity="0.6"/>
    
    <!-- Base platform -->
    <ellipse cx="25" cy="120" rx="35" ry="8" fill="url(#merlionGradient)" opacity="0.6"/>
  </g>
  
  <!-- Singapore Flyer (Simplified) -->
  <g transform="translate(1000, 150)">
    <!-- Ferris wheel structure -->
    <circle cx="50" cy="100" r="80" fill="none" stroke="rgba(255,255,255,0.6)" stroke-width="3"/>
    
    <!-- Support structure -->
    <line x1="50" y1="180" x2="50" y2="220" stroke="rgba(255,255,255,0.7)" stroke-width="4"/>
    <line x1="30" y1="200" x2="70" y2="200" stroke="rgba(255,255,255,0.7)" stroke-width="3"/>
    
    <!-- Passenger capsules -->
    <circle cx="50" cy="20" r="4" fill="rgba(255,255,255,0.8)"/>
    <circle cx="110" cy="60" r="4" fill="rgba(255,255,255,0.8)"/>
    <circle cx="130" cy="100" r="4" fill="rgba(255,255,255,0.8)"/>
    <circle cx="110" cy="140" r="4" fill="rgba(255,255,255,0.8)"/>
    <circle cx="50" cy="180" r="4" fill="rgba(255,255,255,0.8)"/>
    <circle cx="-10" cy="140" r="4" fill="rgba(255,255,255,0.8)"/>
    <circle cx="-30" cy="100" r="4" fill="rgba(255,255,255,0.8)"/>
    <circle cx="-10" cy="60" r="4" fill="rgba(255,255,255,0.8)"/>
  </g>
  
  <!-- Gardens by the Bay Supertrees (Simplified) -->
  <g transform="translate(600, 300)">
    <!-- Supertree 1 -->
    <g>
      <line x1="20" y1="150" x2="20" y2="250" stroke="rgba(255,255,255,0.7)" stroke-width="8"/>
      <circle cx="20" cy="150" r="25" fill="none" stroke="rgba(34,197,94,0.6)" stroke-width="3"/>
      <circle cx="20" cy="140" r="15" fill="none" stroke="rgba(34,197,94,0.7)" stroke-width="2"/>
      <circle cx="20" cy="130" r="8" fill="rgba(34,197,94,0.8)"/>
    </g>
    
    <!-- Supertree 2 -->
    <g>
      <line x1="60" y1="140" x2="60" y2="250" stroke="rgba(255,255,255,0.7)" stroke-width="10"/>
      <circle cx="60" cy="140" r="30" fill="none" stroke="rgba(34,197,94,0.6)" stroke-width="4"/>
      <circle cx="60" cy="125" r="20" fill="none" stroke="rgba(34,197,94,0.7)" stroke-width="3"/>
      <circle cx="60" cy="115" r="12" fill="rgba(34,197,94,0.8)"/>
    </g>
    
    <!-- Supertree 3 -->
    <g>
      <line x1="100" y1="160" x2="100" y2="250" stroke="rgba(255,255,255,0.7)" stroke-width="6"/>
      <circle cx="100" cy="160" r="20" fill="none" stroke="rgba(34,197,94,0.6)" stroke-width="2"/>
      <circle cx="100" cy="150" r="12" fill="none" stroke="rgba(34,197,94,0.7)" stroke-width="2"/>
      <circle cx="100" cy="145" r="6" fill="rgba(34,197,94,0.8)"/>
    </g>
    
    <!-- Connecting bridges -->
    <path d="M45,150 Q52,145 75,145" fill="none" stroke="rgba(255,255,255,0.5)" stroke-width="2"/>
  </g>
  
  <!-- City skyline silhouette -->
  <g opacity="0.4">
    <rect x="0" y="350" width="50" height="100" fill="rgba(255,255,255,0.3)"/>
    <rect x="60" y="320" width="40" height="130" fill="rgba(255,255,255,0.3)"/>
    <rect x="110" y="340" width="35" height="110" fill="rgba(255,255,255,0.3)"/>
    <rect x="400" y="330" width="45" height="120" fill="rgba(255,255,255,0.3)"/>
    <rect x="450" y="310" width="50" height="140" fill="rgba(255,255,255,0.3)"/>
    <rect x="950" y="340" width="40" height="110" fill="rgba(255,255,255,0.3)"/>
    <rect x="1000" y="320" width="35" height="130" fill="rgba(255,255,255,0.3)"/>
    <rect x="1040" y="350" width="45" height="100" fill="rgba(255,255,255,0.3)"/>
  </g>
  
  <!-- Decorative elements -->
  <!-- Orchids (Singapore's national flower) -->
  <g transform="translate(100, 100)" opacity="0.6">
    <circle cx="0" cy="0" r="8" fill="#FF69B4" opacity="0.7"/>
    <circle cx="15" cy="5" r="6" fill="#FF1493" opacity="0.7"/>
    <circle cx="30" cy="-5" r="7" fill="#FF69B4" opacity="0.7"/>
  </g>
  
  <g transform="translate(1100, 80)" opacity="0.6">
    <circle cx="0" cy="0" r="6" fill="#FF1493" opacity="0.7"/>
    <circle cx="-15" cy="8" r="5" fill="#FF69B4" opacity="0.7"/>
    <circle cx="-25" cy="-3" r="6" fill="#FF1493" opacity="0.7"/>
  </g>
  
  <!-- Floating geometric elements -->
  <circle cx="150" cy="80" r="12" fill="rgba(245,158,11,0.4)" filter="url(#glow)"/>
  <circle cx="1050" cy="120" r="8" fill="rgba(245,158,11,0.5)" filter="url(#glow)"/>
  <circle cx="500" cy="60" r="10" fill="rgba(245,158,11,0.3)" filter="url(#glow)"/>
  
  <!-- Abstract wave patterns -->
  <path d="M0,500 Q300,480 600,490 T1200,500" fill="none" stroke="rgba(255,255,255,0.2)" stroke-width="2"/>
  <path d="M0,520 Q300,500 600,510 T1200,520" fill="none" stroke="rgba(255,255,255,0.1)" stroke-width="1"/>
  
  <!-- Text overlay area (transparent) -->
  <rect x="300" y="200" width="600" height="200" fill="rgba(0,0,0,0.1)" rx="20" opacity="0.3"/>
</svg>